<svg width="128" height="128" viewBox="0 0 128 128" fill="none" xmlns="http://www.w3.org/2000/svg">
<path fill-rule="evenodd" clip-rule="evenodd" d="M105.931 0H97.1035V8.82759H88.2759V0H79.4483V17.6552H88.2759V22.069V26.4828H97.1035V8.82759H105.931V0ZM61.7931 0H0V30.8965V61.7931H61.7931V0ZM0 97.1034V123.586H17.6552V114.759H26.4828V123.586H52.9655V128H61.7931V123.586H70.6207V114.759H79.4483V123.586H97.1035V70.6207H88.2759V61.7931H97.1035V52.9655H88.2759V44.1379H70.6207V70.6207H79.4483V79.4483H70.6207V97.1034H61.7931V88.2759H52.9655V79.4483H61.7931V70.6207H52.9655V79.4483H35.3103V88.2759H26.4828V70.6207H8.82758V88.2759H26.4828V97.1034H35.3103V88.2759H52.9655V97.1034H61.7931V105.931H8.82758V97.1034H0ZM61.7931 114.759H52.9655V123.586H61.7931V119.172V114.759ZM61.7931 114.759V105.931H70.6207V114.759H61.7931ZM88.2759 52.9655H79.4483V61.7931H88.2759V57.3793V52.9655ZM114.759 128V123.586H123.586V128H114.759ZM128 123.586H123.586V114.759H128V123.586ZM128 88.2759V26.4828H123.586V8.82759H114.759V44.1379H105.931V35.3103H97.1035V44.1379H105.931V70.6207H114.759V79.4483H105.931V88.2759H114.759V79.4483H123.586V88.2759H128ZM114.759 44.1379V61.7931H123.586V52.9655V44.1379H114.759ZM88.2759 97.1034V101.517V105.931H79.4483V97.1034H88.2759ZM52.9655 8.82759V30.8965V52.9655H8.82758V8.82759H52.9655ZM17.6552 17.6552V30.8965V44.1379H44.1379V17.6552H17.6552ZM70.6207 26.4828V30.8965V35.3103H79.4483V26.4828H70.6207Z" fill="black"/>
</svg>
